<mxfile host="app.diagrams.net" modified="2022-01-07T02:12:53.175Z" agent="5.0 (Windows NT 10.0; Win64; x64) AppleWebKit/537.36 (KHTML, like Gecko) Chrome/97.0.4692.71 Safari/537.36" etag="5-JQ22M5bLQMxCsmufE2" version="16.2.2" type="github">
  <diagram id="i6pk71MMRM4OO4OPl3bH" name="Page-1">
    <mxGraphModel dx="1284" dy="482" grid="1" gridSize="10" guides="1" tooltips="1" connect="1" arrows="1" fold="1" page="1" pageScale="1" pageWidth="827" pageHeight="1169" math="0" shadow="0">
      <root>
        <mxCell id="0" />
        <mxCell id="1" parent="0" />
        <mxCell id="bXm7J7abLn25Eofm2t-N-3" value="" style="edgeStyle=orthogonalEdgeStyle;rounded=0;orthogonalLoop=1;jettySize=auto;html=1;" edge="1" parent="1" source="bXm7J7abLn25Eofm2t-N-1" target="bXm7J7abLn25Eofm2t-N-2">
          <mxGeometry relative="1" as="geometry" />
        </mxCell>
        <mxCell id="bXm7J7abLn25Eofm2t-N-1" value="Iniciar programa" style="ellipse;whiteSpace=wrap;html=1;" vertex="1" parent="1">
          <mxGeometry x="310" y="40" width="120" height="80" as="geometry" />
        </mxCell>
        <mxCell id="bXm7J7abLn25Eofm2t-N-5" value="" style="edgeStyle=orthogonalEdgeStyle;rounded=0;orthogonalLoop=1;jettySize=auto;html=1;" edge="1" parent="1" source="bXm7J7abLn25Eofm2t-N-2" target="bXm7J7abLn25Eofm2t-N-4">
          <mxGeometry relative="1" as="geometry" />
        </mxCell>
        <mxCell id="bXm7J7abLn25Eofm2t-N-2" value="Solicitar ano para usuário" style="whiteSpace=wrap;html=1;" vertex="1" parent="1">
          <mxGeometry x="310" y="160" width="120" height="60" as="geometry" />
        </mxCell>
        <mxCell id="bXm7J7abLn25Eofm2t-N-7" value="" style="edgeStyle=orthogonalEdgeStyle;rounded=0;orthogonalLoop=1;jettySize=auto;html=1;" edge="1" parent="1" source="bXm7J7abLn25Eofm2t-N-4" target="bXm7J7abLn25Eofm2t-N-30">
          <mxGeometry relative="1" as="geometry">
            <mxPoint x="540" y="290" as="targetPoint" />
            <Array as="points" />
          </mxGeometry>
        </mxCell>
        <mxCell id="bXm7J7abLn25Eofm2t-N-9" value="" style="edgeStyle=orthogonalEdgeStyle;rounded=0;orthogonalLoop=1;jettySize=auto;html=1;" edge="1" parent="1" source="bXm7J7abLn25Eofm2t-N-4" target="bXm7J7abLn25Eofm2t-N-8">
          <mxGeometry relative="1" as="geometry" />
        </mxCell>
        <mxCell id="bXm7J7abLn25Eofm2t-N-4" value="Ano%4 = 0?" style="rhombus;whiteSpace=wrap;html=1;" vertex="1" parent="1">
          <mxGeometry x="330" y="250" width="80" height="80" as="geometry" />
        </mxCell>
        <mxCell id="bXm7J7abLn25Eofm2t-N-27" value="" style="edgeStyle=orthogonalEdgeStyle;rounded=0;orthogonalLoop=1;jettySize=auto;html=1;" edge="1" parent="1" source="bXm7J7abLn25Eofm2t-N-8" target="bXm7J7abLn25Eofm2t-N-26">
          <mxGeometry relative="1" as="geometry" />
        </mxCell>
        <mxCell id="bXm7J7abLn25Eofm2t-N-36" style="edgeStyle=orthogonalEdgeStyle;rounded=0;orthogonalLoop=1;jettySize=auto;html=1;entryX=0;entryY=0.5;entryDx=0;entryDy=0;" edge="1" parent="1" source="bXm7J7abLn25Eofm2t-N-8" target="bXm7J7abLn25Eofm2t-N-30">
          <mxGeometry relative="1" as="geometry">
            <Array as="points">
              <mxPoint x="230" y="400" />
            </Array>
          </mxGeometry>
        </mxCell>
        <mxCell id="bXm7J7abLn25Eofm2t-N-8" value="Ano%100 = 0?" style="rhombus;whiteSpace=wrap;html=1;" vertex="1" parent="1">
          <mxGeometry x="190" y="250" width="80" height="80" as="geometry" />
        </mxCell>
        <mxCell id="bXm7J7abLn25Eofm2t-N-13" value="" style="edgeStyle=orthogonalEdgeStyle;rounded=0;orthogonalLoop=1;jettySize=auto;html=1;exitX=0.5;exitY=1;exitDx=0;exitDy=0;" edge="1" parent="1" source="bXm7J7abLn25Eofm2t-N-30" target="bXm7J7abLn25Eofm2t-N-12">
          <mxGeometry relative="1" as="geometry">
            <mxPoint x="410" y="530" as="sourcePoint" />
          </mxGeometry>
        </mxCell>
        <mxCell id="bXm7J7abLn25Eofm2t-N-12" value="È bissexto." style="whiteSpace=wrap;html=1;" vertex="1" parent="1">
          <mxGeometry x="310" y="480" width="120" height="60" as="geometry" />
        </mxCell>
        <mxCell id="bXm7J7abLn25Eofm2t-N-14" value="Não" style="text;html=1;align=center;verticalAlign=middle;resizable=0;points=[];autosize=1;strokeColor=none;fillColor=none;" vertex="1" parent="1">
          <mxGeometry x="380" y="330" width="40" height="20" as="geometry" />
        </mxCell>
        <mxCell id="bXm7J7abLn25Eofm2t-N-15" value="Sim" style="text;html=1;align=center;verticalAlign=middle;resizable=0;points=[];autosize=1;strokeColor=none;fillColor=none;" vertex="1" parent="1">
          <mxGeometry x="280" y="260" width="40" height="20" as="geometry" />
        </mxCell>
        <mxCell id="bXm7J7abLn25Eofm2t-N-17" value="Sim" style="text;html=1;align=center;verticalAlign=middle;resizable=0;points=[];autosize=1;strokeColor=none;fillColor=none;" vertex="1" parent="1">
          <mxGeometry x="380" y="440" width="40" height="20" as="geometry" />
        </mxCell>
        <mxCell id="bXm7J7abLn25Eofm2t-N-26" value="É bissexto." style="whiteSpace=wrap;html=1;" vertex="1" parent="1">
          <mxGeometry x="170" y="160" width="120" height="60" as="geometry" />
        </mxCell>
        <mxCell id="bXm7J7abLn25Eofm2t-N-28" value="Não" style="text;html=1;align=center;verticalAlign=middle;resizable=0;points=[];autosize=1;strokeColor=none;fillColor=none;" vertex="1" parent="1">
          <mxGeometry x="180" y="230" width="40" height="20" as="geometry" />
        </mxCell>
        <mxCell id="bXm7J7abLn25Eofm2t-N-30" value="Ano%400 = 0?" style="rhombus;whiteSpace=wrap;html=1;" vertex="1" parent="1">
          <mxGeometry x="330" y="360" width="80" height="80" as="geometry" />
        </mxCell>
        <mxCell id="bXm7J7abLn25Eofm2t-N-32" value="&lt;span&gt;Não é ano bissexto!&lt;/span&gt;" style="whiteSpace=wrap;html=1;" vertex="1" parent="1">
          <mxGeometry x="454" y="370" width="120" height="60" as="geometry" />
        </mxCell>
        <mxCell id="bXm7J7abLn25Eofm2t-N-33" value="" style="edgeStyle=orthogonalEdgeStyle;rounded=0;orthogonalLoop=1;jettySize=auto;html=1;exitX=1;exitY=0.5;exitDx=0;exitDy=0;entryX=0;entryY=0.5;entryDx=0;entryDy=0;" edge="1" parent="1" source="bXm7J7abLn25Eofm2t-N-30" target="bXm7J7abLn25Eofm2t-N-32">
          <mxGeometry relative="1" as="geometry">
            <mxPoint x="420" y="300" as="sourcePoint" />
            <mxPoint x="490" y="300" as="targetPoint" />
            <Array as="points" />
          </mxGeometry>
        </mxCell>
        <mxCell id="bXm7J7abLn25Eofm2t-N-34" value="Não" style="text;html=1;align=center;verticalAlign=middle;resizable=0;points=[];autosize=1;strokeColor=none;fillColor=none;" vertex="1" parent="1">
          <mxGeometry x="414" y="370" width="40" height="20" as="geometry" />
        </mxCell>
        <mxCell id="bXm7J7abLn25Eofm2t-N-37" value="Sim" style="text;html=1;align=center;verticalAlign=middle;resizable=0;points=[];autosize=1;strokeColor=none;fillColor=none;" vertex="1" parent="1">
          <mxGeometry x="280" y="370" width="40" height="20" as="geometry" />
        </mxCell>
      </root>
    </mxGraphModel>
  </diagram>
</mxfile>
